<?xml version="1.0" encoding="UTF-8" standalone="no"?>
<!DOCTYPE svg PUBLIC "-//W3C//DTD SVG 1.1//EN" "http://www.w3.org/Graphics/SVG/1.1/DTD/svg11.dtd">
<svg width="100%" height="100%" viewBox="0 0 200 200" version="1.1" xmlns="http://www.w3.org/2000/svg" xmlns:xlink="http://www.w3.org/1999/xlink" xml:space="preserve" xmlns:serif="http://www.serif.com/" style="fill-rule:evenodd;clip-rule:evenodd;stroke-linecap:round;stroke-linejoin:round;stroke-miterlimit:1.5;">
    <g id="wanikani" transform="matrix(0.600059,0,0,0.600059,-20.1807,-11.13)">
        <path d="M138.125,90.771C138.285,81.479 140.529,71.889 145.725,61.877C152.552,49.997 160.464,44.841 169.213,44.874C176.36,45.599 182.335,49.336 186.793,56.978C190.283,65.343 194.967,69.775 200.77,69.803C206.352,69.829 208.235,66.656 213.566,56.949C217.932,49 224.819,44.731 232.616,45.306C242.479,46.542 249.651,52.332 254.519,62.021C259.291,71.05 261.771,80.508 261.824,90.419C299.821,112.002 325.491,152.945 325.491,199.859C325.491,269.215 269.386,325.523 200.281,325.523C131.176,325.523 75.072,269.215 75.072,199.859C75.072,153.2 100.464,112.446 138.125,90.771ZM223.951,296.157C224.234,302.781 227.21,308.715 232.215,313.923C212.004,320.101 189.9,320.139 168.588,314.513C171.869,309.591 175.27,303.578 177.134,296.452C193.06,298.916 208.655,298.729 223.951,296.157ZM143.917,165.1C143.917,165.1 90.46,173.492 85.221,209.993C81.015,239.294 104.227,273.035 133.504,297.559C156.596,316.902 166.266,311.347 169.798,301.247C171.159,297.353 170.956,291.633 170.986,287.14C171.035,279.842 170.755,273.504 170.755,273.504C170.755,273.504 168.93,256.995 152.947,266.285C140.135,273.733 134.296,264.103 134.495,258.554C135.492,230.721 115.404,243.79 115.404,243.79C113.675,244.164 112.971,243.285 114.653,241.591C114.653,241.591 136.911,227.54 138.787,252.448C140.148,270.51 148.578,262.17 153.904,260.224C159.145,258.31 175.641,254.597 175.471,274.902C182.864,275.451 185.279,267.875 186.665,264.154C188.101,260.301 189.904,253.17 190.357,249.09C183.019,248.127 170.872,248.166 158.93,237.667C150.838,230.552 149.619,218.151 148.358,207.164C147.097,196.176 143.917,165.1 143.917,165.1ZM256.627,165.08C256.627,165.08 310.083,173.472 315.323,209.973C319.529,239.274 296.316,273.015 267.039,297.539C243.948,316.883 234.277,311.327 230.746,301.227C229.384,297.333 229.588,291.613 229.558,287.121C229.508,279.822 229.789,273.484 229.789,273.484C229.789,273.484 231.614,256.975 247.597,266.266C260.408,273.713 266.282,264.082 266.049,258.535C264.902,231.248 284.303,243.441 284.847,243.672C286.528,244.386 287.111,243.21 285.573,241.974C284.98,241.677 262.937,227.172 261.757,252.428C260.911,270.522 251.966,262.15 246.64,260.205C241.399,258.29 224.903,254.578 225.073,274.882C217.68,275.431 215.265,267.856 213.878,264.135C212.443,260.282 210.64,253.15 210.187,249.07C217.524,248.107 229.672,248.146 241.613,237.647C249.706,230.532 250.925,218.131 252.186,207.144C253.446,196.156 256.627,165.08 256.627,165.08ZM188.701,273.139C188.701,273.139 194.363,273.617 200.281,273.707C205.554,273.788 210.582,273.294 211.589,273.178C215.669,278.165 218.195,280.528 222.917,281.472C222.954,286.005 223.03,291.973 223.03,291.973C223.03,291.973 212.869,294.051 201.385,294.051C189.902,294.051 177.134,291.936 177.134,291.936L177.134,282.114C177.134,282.114 184.357,280.127 188.701,273.139ZM196.806,248.878L204.089,248.938C204.089,248.938 206.083,261.809 209.105,268.883C204.058,268.916 191.034,269.007 191.034,269.007C191.034,269.007 195.113,259.148 196.806,248.878ZM255.703,87.164C254.657,78.622 252.302,71.127 248.899,64.471C245,57.237 239.973,52.637 233.769,50.782C227.052,50.402 222.089,54.283 218.062,60.436C212.093,70.756 208.443,75.982 200.77,75.999C193.143,76.016 187.261,70.149 182.326,60.725C179.334,55.011 174.517,50.874 169.933,50.782C163.123,50.644 157.167,55.251 151.847,64.541C147.095,72.841 144.024,83.385 143.851,98.622L143.772,98.629C143.786,100.035 143.842,101.418 143.943,102.754C147.935,145.185 151.926,184.482 155.917,220.188C158.861,232.446 165.836,239.022 179,241.664C193.819,242.687 207.545,242.773 220.212,241.952C233.555,238.63 241.652,231.61 244.236,220.603C248.446,182.08 252.437,142.235 256.34,101.867C256.35,96.573 256.041,91.616 255.446,87.036L255.703,87.164ZM200.04,203.823C201.395,203.6 203.182,201.903 204.528,199.695C207.675,194.531 211.115,191.081 216.022,191.203C220.166,191.306 223.13,194.45 225.617,197.851C228.16,201.329 228.765,205.377 229.243,210.09C229.287,211.432 227.346,211.478 227.128,210.581C226.221,206.86 225.131,203.643 223.01,200.609C220.929,197.631 218.082,194.985 215.758,194.905C212.872,194.805 209.801,198.426 208.052,201.364C205.451,205.732 203.832,207.969 200.284,208.206L200.284,208.225C200.201,208.224 200.12,208.222 200.04,208.219C199.959,208.222 199.878,208.224 199.796,208.225L199.796,208.206C196.248,207.969 194.629,205.732 192.028,201.364C190.278,198.426 187.207,194.805 184.322,194.905C181.997,194.985 179.15,197.631 177.069,200.609C174.948,203.643 173.858,206.86 172.952,210.581C172.733,211.478 170.792,211.432 170.836,210.09C171.314,205.377 171.92,201.329 174.463,197.851C176.949,194.45 179.913,191.306 184.057,191.203C188.964,191.081 192.404,194.531 195.551,199.695C196.897,201.903 198.684,203.6 200.04,203.823ZM215.807,201.695C217.942,201.695 219.675,203.347 219.675,205.381C219.675,207.416 217.942,209.068 215.807,209.068C213.672,209.068 211.939,207.416 211.939,205.381C211.939,203.347 213.672,201.695 215.807,201.695ZM184.409,201.695C186.427,201.695 188.066,203.347 188.066,205.381C188.066,207.416 186.427,209.068 184.409,209.068C182.391,209.068 180.753,207.416 180.753,205.381C180.753,203.347 182.391,201.695 184.409,201.695ZM215.112,170.459C215.19,172.011 212.716,172.776 200.238,172.829C187.502,172.883 184.803,172.205 184.89,170.824C185.037,168.496 185.114,169.055 200.238,169.055C214.391,169.055 215.027,168.738 215.112,170.459ZM221.844,149.37C221.955,151.612 219.86,151.81 200.334,151.725C180.807,151.64 178.06,151.638 178.16,149.793C178.307,147.086 178.568,147.959 200.428,147.959C220.885,147.959 221.744,147.371 221.844,149.37ZM234.253,128.599C234.427,131.178 231.29,131.215 200.884,131.126C170.477,131.037 166.137,131.331 166.23,129.041C166.345,126.199 166.864,127.123 200.905,127.123C232.76,127.123 234.112,126.508 234.253,128.599ZM171.548,82.988C165.623,83.159 161.615,87.512 160.844,92.945C160.164,97.747 161.588,103.321 165.354,105.591C168.903,107.73 172.371,107.37 176.049,103.867C178.6,101.273 179.916,97.855 180.106,93.686C180.336,88.66 175.846,82.865 171.548,82.988ZM229.297,82.986C235.727,83.35 239.106,87.626 239.623,93.229C240.069,98.058 238.691,103.321 234.925,105.591C231.376,107.73 227.908,107.37 224.23,103.867C221.679,101.84 220.353,99.083 220.172,93.686C219.995,88.386 225,82.743 229.297,82.986Z" style="fill:rgb(28,69,245);"/>
    </g>
    <g id="plus-badge" serif:id="plus badge" transform="matrix(0.525809,0,0,0.525809,-12.6753,10.5504)">
        <g transform="matrix(1.3033,0,0,1.3033,-190.038,25.6832)">
            <circle cx="248.901" cy="58.223" r="64.028" style="fill:rgb(76,112,240);stroke:rgb(11,37,131);stroke-width:5.84px;"/>
        </g>
        <g transform="matrix(0.730392,0,0,0.730392,36.2228,27.3829)">
            <g transform="matrix(1,0,0,1,5.68434e-14,-2.39226)">
                <rect x="76.939" y="93.404" width="114.828" height="21.108" style="fill:white;"/>
            </g>
            <g transform="matrix(6.12323e-17,1,-1,6.12323e-17,238.311,-32.788)">
                <rect x="76.939" y="93.404" width="114.828" height="21.108" style="fill:white;"/>
            </g>
        </g>
    </g>
</svg>
